<?xml version="1.0" encoding="UTF-8"?>
<svg version="1.1" xmlns="http://www.w3.org/2000/svg" width="1024" height="1024">
<path d="M0,0 L1024,0 L1024,1536 L0,1536 Z " fill='transparent' transform="translate(0,0)"/>
<path d="M0,0 L9,1 L70,17 L126,30 L171,39 L208,45 L243,50 L270,53 L296,55 L321,56 L370,56 L411,53 L447,49 L486,43 L522,36 L568,26 L633,10 L662,2 L670,0 L675,1 L674,9 L660,53 L646,103 L634,151 L627,185 L621,221 L617,252 L614,288 L613,307 L613,350 L616,397 L619,426 L625,464 L630,490 L640,533 L650,570 L663,613 L677,656 L676,661 L667,660 L583,638 L528,625 L489,617 L453,610 L404,604 L372,602 L300,602 L261,605 L224,610 L183,617 L148,624 L90,638 L36,652 L3,661 L-2,661 L-3,656 L9,621 L21,582 L34,534 L40,509 L49,467 L55,429 L59,393 L61,354 L61,307 L58,262 L54,225 L46,178 L38,141 L29,105 L12,46 L-1,6 L-2,2 Z "
 fill="#7b7070" 
transform=" rotate(45) translate(390, -350)"/>
</svg>
