<svg xmlns="http://www.w3.org/2000/svg" version="1.1" viewBox="-5.0 -10.0 110.0 115.0">
 <path d="m89.637 42.484h-79.273c-1.0977 0-1.7617-1.2227-1.1641-2.1445l11.324-17.484c0.25781-0.39453 0.69531-0.63281 1.1641-0.63281h56.625c0.47266 0 0.91016 0.23828 1.1641 0.63281l11.324 17.484c0.59766 0.92578-0.066406 2.1445-1.1641 2.1445zm-76.719-2.7773h74.164l-9.5273-14.707h-55.113z"/>
 <path d="m48.875 96.648-39.637-54.738c-0.44922-0.62109-0.3125-1.4883 0.30859-1.9375 0.62109-0.44922 1.4883-0.3125 1.9375 0.30859l38.516 53.184 21.113-29.156c0.44922-0.62109 1.3203-0.76172 1.9375-0.30859 0.62109 0.44922 0.76172 1.3164 0.30859 1.9414l-22.234 30.707c-0.55469 0.76562-1.6953 0.76562-2.25 0z"/>
 <path d="m76.094 59.801c-0.62109-0.44922-0.76172-1.3164-0.30859-1.9375l12.73-17.578c0.44922-0.62109 1.3203-0.76172 1.9375-0.30859 0.62109 0.44922 0.76172 1.3164 0.30859 1.9375l-12.73 17.578c-0.44922 0.62109-1.3164 0.75781-1.9375 0.30859z"/>
 <path d="m48.672 96.246-16.988-54.738c-0.22656-0.73437 0.18359-1.5117 0.91406-1.7383 0.73047-0.22656 1.5117 0.18359 1.7383 0.91406l15.664 50.465 15.66-50.461c0.22656-0.73438 1.0039-1.1406 1.7383-0.91406 0.73437 0.22656 1.1406 1.0039 0.91406 1.7383l-16.988 54.738c-0.39844 1.293-2.2461 1.2969-2.6523-0.003906z"/>
 <path d="m74.535 72.684c-0.76562 0-1.3906-0.62109-1.3906-1.3906 0-4.4375-3.6094-8.0469-8.0469-8.0469-0.76562 0-1.3906-0.62109-1.3906-1.3906 0-0.76562 0.62109-1.3906 1.3906-1.3906 4.4375 0 8.0469-3.6094 8.0469-8.0469 0-0.76562 0.62109-1.3906 1.3906-1.3906 0.76562 0 1.3906 0.62109 1.3906 1.3906 0 4.4375 3.6094 8.0469 8.0469 8.0469 0.76562 0 1.3906 0.62109 1.3906 1.3906 0 0.76562-0.62109 1.3906-1.3906 1.3906-4.4375 0-8.0469 3.6094-8.0469 8.0469 0 0.76953-0.62109 1.3906-1.3906 1.3906zm-4.1328-10.824c1.7266 0.97266 3.1602 2.4102 4.1367 4.1367 0.97266-1.7266 2.4102-3.1602 4.1367-4.1367-1.7266-0.97266-3.1602-2.4102-4.1367-4.1367-0.97656 1.7266-2.4102 3.1641-4.1367 4.1367z"/>
 <path d="m34.438 24.43c-0.76562 0-1.3906-0.62109-1.3906-1.3906 0-4.4375-3.6094-8.0469-8.0469-8.0469-0.76562 0-1.3906-0.62109-1.3906-1.3906 0-0.76562 0.62109-1.3906 1.3906-1.3906 4.4375 0 8.0469-3.6094 8.0469-8.0469 0-0.76562 0.62109-1.3906 1.3906-1.3906 0.76562 0 1.3906 0.62109 1.3906 1.3906 0 4.4375 3.6094 8.0469 8.0469 8.0469 0.76562 0 1.3906 0.62109 1.3906 1.3906 0 0.76563-0.62109 1.3906-1.3906 1.3906-4.4375 0-8.0469 3.6094-8.0469 8.0469 0 0.76953-0.625 1.3906-1.3906 1.3906zm-4.1367-10.824c1.7266 0.97266 3.1602 2.4102 4.1367 4.1367 0.97266-1.7266 2.4102-3.1602 4.1367-4.1367-1.7266-0.97266-3.1602-2.4102-4.1367-4.1367-0.97266 1.7266-2.4102 3.1602-4.1367 4.1367z"/>
 <path d="m66.988 42.484h-33.977c-1.0977 0-1.7617-1.2227-1.1641-2.1445l11.324-17.484c0.25781-0.39453 0.69531-0.63281 1.1641-0.63281h11.324c0.47266 0 0.91016 0.23828 1.1641 0.63281l11.324 17.484c0.60156 0.92578-0.0625 2.1445-1.1602 2.1445zm-31.422-2.7773h28.867l-9.5273-14.707h-9.8125z"/>
<text x="0.0" y="117.5" font-size="5.0" font-weight="bold" font-family="Arbeit Regular, Helvetica, Arial-Unicode, Arial, Sans-serif" fill="#000000">Created by Iconiyo</text><text x="0.0" y="122.5" font-size="5.0" font-weight="bold" font-family="Arbeit Regular, Helvetica, Arial-Unicode, Arial, Sans-serif" fill="#000000">from Noun Project</text></svg>