<svg xmlns="http://www.w3.org/2000/svg" xmlns:xlink="http://www.w3.org/1999/xlink" version="1.1" x="0px" y="0px"
    viewBox="0 0 32 32" style="enable-background:new 0 0 32 32;" xml:space="preserve">
    <path
        d="M24.825,11.325C24.825,6.459,20.866,2.5,16,2.5s-8.825,3.959-8.825,8.825c0,4.25,3.072,7.901,7.215,8.668v3.326h-3.725v3.22  h3.725V29.5h3.221v-2.961h3.725v-3.22H17.61v-3.326C21.753,19.226,24.825,15.574,24.825,11.325z M20.335,24.319v1.22H16.61V28.5  H15.39v-2.961h-3.725v-1.22h3.725v-5.19l-0.434-0.058c-3.866-0.519-6.781-3.849-6.781-7.747C8.175,7.01,11.686,3.5,16,3.5  s7.825,3.51,7.825,7.825c0,3.898-2.915,7.228-6.781,7.747l-0.434,0.058v5.19H20.335z" />
    <path
        d="M22.604,11.325c0-3.642-2.963-6.605-6.604-6.605s-6.604,2.963-6.604,6.605S12.358,17.93,16,17.93  S22.604,14.967,22.604,11.325z M16,16.93c-3.09,0-5.604-2.514-5.604-5.605S12.91,5.72,16,5.72s5.604,2.514,5.604,5.605  S19.09,16.93,16,16.93z" />
    <path
        d="M19.677,8.51C18.666,7.5,17.038,7.477,16,8.437C14.962,7.478,13.334,7.5,12.323,8.51c-0.501,0.501-0.777,1.168-0.777,1.877  c0,0.71,0.276,1.376,0.777,1.877L16,15.941l3.677-3.677c0.501-0.501,0.777-1.167,0.777-1.877C20.454,9.678,20.178,9.011,19.677,8.51  z M18.97,11.557L16,14.527l-2.97-2.971c-0.313-0.312-0.484-0.727-0.484-1.169c0-0.442,0.172-0.857,0.484-1.17  c0.645-0.645,1.694-0.644,2.339,0L16,9.848l0.631-0.631c0.645-0.644,1.694-0.645,2.339,0c0.313,0.313,0.484,0.728,0.484,1.17  C19.454,10.83,19.282,11.245,18.97,11.557z" />
    <text x="0" y="47" fill="#000000" font-size="5px" font-weight="bold"
        font-family="'Helvetica Neue', Helvetica, Arial-Unicode, Arial, Sans-serif">Created by Athok</text><text x="0"
        y="52" fill="#000000" font-size="5px" font-weight="bold"
        font-family="'Helvetica Neue', Helvetica, Arial-Unicode, Arial, Sans-serif">from the Noun Project</text>
</svg>