<svg xmlns="http://www.w3.org/2000/svg" xmlns:sodipodi="http://sodipodi.sourceforge.net/DTD/sodipodi-0.dtd"
    viewBox="0 0 100 100" x="0px" y="0px">
    <path
        d="m 65.622,5 0,4.5170455 21.62232,0 -25.099434,25.1420455 3.196023,3.196023 25.099431,-25.099432 0,21.579318 L 95,34.335 95,5 z"
        color="white" />
    <path
        d="m 34.378,5 0,4.517046 -21.62232,0 25.09944,25.142045 -3.19603,3.196023 L 9.55966,12.755682 9.55966,34.335 5,34.335 5,5 z"
        color="white" />
    <path
        d="m 65.621996,95 0,-4.517045 21.62232,0 -25.09943,-25.142046 3.19602,-3.196023 25.09943,25.099432 0,-21.579318 L 95,65.665 95,95 z"
        color="white" />
    <path
        d="m 34.377996,95 0,-4.517046 -21.62232,0 25.09944,-25.142045 -3.19603,-3.196023 -25.09943,25.099432 0,-21.579318 -4.55966,0 0,29.335 z"
        color="white" />
</svg>