<svg xmlns="http://www.w3.org/2000/svg" xmlns:xlink="http://www.w3.org/1999/xlink" version="1.1" x="0px" y="0px"
    viewBox="0 0 100 125" enable-background="new 0 0 100 42" xml:space="preserve">
    <g>
        <path fill="rgba(255,255,255,0.709)"
            d="M41.213,56.857L8.329,89.74l2.497-11.549c0.145-0.673-0.282-1.336-0.955-1.481c-0.666-0.143-1.335,0.282-1.481,0.954   L5.028,93.221c-0.085,0.394,0.026,0.804,0.297,1.102c0.237,0.261,0.573,0.407,0.921,0.407c0.048,0,0.099-0.003,0.148-0.009   l15.803-1.899c0.684-0.082,1.17-0.702,1.089-1.385c-0.082-0.682-0.695-1.173-1.386-1.088L9.788,91.804l33.187-33.186   c0.486-0.487,0.486-1.275,0-1.761C42.488,56.37,41.7,56.37,41.213,56.857z" />
        <path fill="rgba(255,255,255,0.773)"
            d="M94.686,5.689c-0.266-0.301-0.671-0.45-1.063-0.413l-15.827,1.68c-0.684,0.073-1.18,0.686-1.107,1.371   c0.073,0.684,0.683,1.181,1.37,1.108l11.835-1.257L56.279,41.79c-0.487,0.487-0.487,1.275,0,1.762   c0.243,0.243,0.562,0.365,0.881,0.365c0.319,0,0.637-0.122,0.881-0.365L91.695,9.899l-2.731,11.845   c-0.154,0.67,0.264,1.339,0.935,1.494c0.094,0.021,0.189,0.032,0.281,0.032c0.567,0,1.08-0.39,1.213-0.966l3.576-15.509   C95.058,6.402,94.954,5.99,94.686,5.689z" />
    </g>
</svg>