<svg xmlns="http://www.w3.org/2000/svg" xmlns:xlink="http://www.w3.org/1999/xlink" version="1.1" x="0px" y="0px"
    viewBox="0 0 32 32" style="enable-background:new 0 0 32 32;" xml:space="preserve">
    <path
        d="M16.557,6.211L16,6.768l-0.557-0.557c-2.957-2.957-7.768-2.956-10.723,0C3.289,7.643,2.5,9.547,2.5,11.572  c0,2.026,0.789,3.931,2.221,5.361L16,28.213l11.279-11.28c1.432-1.431,2.221-3.335,2.221-5.361c0-2.025-0.789-3.929-2.221-5.361  C24.323,3.256,19.513,3.255,16.557,6.211z M26.572,16.226L16,26.799L5.428,16.226C4.185,14.984,3.5,13.331,3.5,11.572  c0-1.758,0.685-3.411,1.928-4.654c2.566-2.567,6.742-2.566,9.309,0l0.704,0.704l-0.802,2.882l2.475,2.565l-2.746,3.078l2.085,2.533  l-1.735,2.242L16,23.851l-0.204-2.69l1.936-2.501l-2.048-2.487l2.793-3.131l-2.722-2.821l0.691-2.485l0.817-0.817  c2.566-2.565,6.743-2.564,9.309,0c1.243,1.243,1.928,2.896,1.928,4.654C28.5,13.331,27.815,14.984,26.572,16.226z" />
    <text x="0" y="47" fill="#000000" font-size="5px" font-weight="bold"
        font-family="'Helvetica Neue', Helvetica, Arial-Unicode, Arial, Sans-serif">Created by Athok</text><text x="0"
        y="52" fill="#000000" font-size="5px" font-weight="bold"
        font-family="'Helvetica Neue', Helvetica, Arial-Unicode, Arial, Sans-serif">from the Noun Project</text>
</svg>