<svg xmlns="http://www.w3.org/2000/svg" xmlns:xlink="http://www.w3.org/1999/xlink" version="1.1" x="0px" y="0px" viewBox="0 0 100 125" enable-background="new 0 0 100 100" xml:space="preserve"><g><path d="M43.706,74.945c0,0.09,0.24,0.299,0.638,0.299h11.34c0.396,0,0.637-0.209,0.637-0.299c0-0.393,0.318-0.713,0.712-0.713   h33.311V25.038c0-1.801-1.466-3.267-3.267-3.267H12.95c-1.801,0-3.266,1.465-3.266,3.267v49.195h33.311   C43.388,74.232,43.706,74.553,43.706,74.945z M11.7,25.038c0-0.689,0.561-1.25,1.25-1.25h74.126c0.689,0,1.251,0.561,1.251,1.25   v47.761H11.7V25.038z"/><path d="M94.78,78.229c3.226,0,5.016-1.258,5.016-1.258l0.026-0.004v-2.021h-42.79c0,0.555-0.606,1.01-1.349,1.01h-11.34   c-0.742,0-1.349-0.455-1.349-1.01H0.204v2.021l-0.026,0.004c0,0,1.791,1.258,5.017,1.258H94.78z"/></g><text x="0" y="115" fill="#000000" font-size="5px" font-weight="bold" font-family="'Helvetica Neue', Helvetica, Arial-Unicode, Arial, Sans-serif">Created by Ilusteo</text><text x="0" y="120" fill="#000000" font-size="5px" font-weight="bold" font-family="'Helvetica Neue', Helvetica, Arial-Unicode, Arial, Sans-serif">from the Noun Project</text></svg>