<svg xmlns="http://www.w3.org/2000/svg" version="1.1" viewBox="-5.0 -10.0 110.0 110.0">
   <rect width="10" height="90" fill="rgba(255,255,255,0)" transform="translate(35, 30) rotate(35, 50, 45)"/>
    <path fill="white"
        d="m75 70c-10.941 0-18.871-9.5195-26.539-18.719-7.4023-8.8906-14.402-17.281-23.461-17.281-8.8203 0-16 7.1797-16 16s7.1797 16 16 16c7.25 0 13.289-5.6406 18.238-11.172 0.73828-0.82031 2-0.89062 2.8203-0.14844 0.82031 0.73828 0.89062 2 0.14844 2.8203-5.5352 6.1797-12.387 12.5-21.207 12.5-11.031 0-20-8.9688-20-20s8.9688-20 20-20c10.941 0 18.871 9.5195 26.539 18.719 7.4023 8.8906 14.402 17.281 23.461 17.281 8.8203 0 16-7.1797 16-16s-7.1797-16-16-16c-7.25 0-13.289 5.6406-18.238 11.172-0.73828 0.82031-2 0.89062-2.8203 0.14844-0.82031-0.73828-0.89062-2-0.14844-2.8203 5.5352-6.1797 12.387-12.5 21.207-12.5 11.031 0 20 8.9688 20 20s-8.9688 20-20 20z" />
</svg>